<svg id="visual" viewBox="0 0 960 540" width="960" height="540" xmlns="http://www.w3.org/2000/svg" xmlns:xlink="http://www.w3.org/1999/xlink" version="1.1"><rect x="0" y="0" width="960" height="540" fill="#140021"></rect><path d="M0 270L120 270L120 263L240 263L240 240L360 240L360 307L480 307L480 254L600 254L600 268L720 268L720 294L840 294L840 243L960 243L960 288L960 0L960 0L840 0L840 0L720 0L720 0L600 0L600 0L480 0L480 0L360 0L360 0L240 0L240 0L120 0L120 0L0 0Z" fill="#560090"></path><path d="M0 252L120 252L120 190L240 190L240 194L360 194L360 224L480 224L480 185L600 185L600 209L720 209L720 239L840 239L840 177L960 177L960 257L960 0L960 0L840 0L840 0L720 0L720 0L600 0L600 0L480 0L480 0L360 0L360 0L240 0L240 0L120 0L120 0L0 0Z" fill="#6600ab"></path><path d="M0 198L120 198L120 188L240 188L240 154L360 154L360 159L480 159L480 162L600 162L600 151L720 151L720 151L840 151L840 171L960 171L960 151L960 0L960 0L840 0L840 0L720 0L720 0L600 0L600 0L480 0L480 0L360 0L360 0L240 0L240 0L120 0L120 0L0 0Z" fill="#7700c6"></path><path d="M0 118L120 118L120 146L240 146L240 99L360 99L360 81L480 81L480 81L600 81L600 80L720 80L720 102L840 102L840 88L960 88L960 107L960 0L960 0L840 0L840 0L720 0L720 0L600 0L600 0L480 0L480 0L360 0L360 0L240 0L240 0L120 0L120 0L0 0Z" fill="#8800e2"></path><path d="M0 89L120 89L120 83L240 83L240 45L360 45L360 77L480 77L480 85L600 85L600 35L720 35L720 53L840 53L840 49L960 49L960 34L960 0L960 0L840 0L840 0L720 0L720 0L600 0L600 0L480 0L480 0L360 0L360 0L240 0L240 0L120 0L120 0L0 0Z" fill="#9900ff"></path></svg>